<?xml version="1.0" encoding="utf-8"?>
<!-- Generator: Adobe Illustrator 16.0.0, SVG Export Plug-In . SVG Version: 6.00 Build 0)  -->
<!DOCTYPE svg PUBLIC "-//W3C//DTD SVG 1.1//EN" "http://www.w3.org/Graphics/SVG/1.1/DTD/svg11.dtd">
<svg version="1.1" id="Layer_1" xmlns="http://www.w3.org/2000/svg" xmlns:xlink="http://www.w3.org/1999/xlink" x="0px" y="0px"
	 width="124.441px" height="144.874px" viewBox="0 0 124.441 144.874" enable-background="new 0 0 124.441 144.874"
	 xml:space="preserve">
<g>
	<g>
		<g>
			<defs>
				<polygon id="SVGID_1_" points="0,36.438 62.221,0.438 124.441,36.438 124.441,108.438 62.221,144.436 0,108.438 				"/>
			</defs>
			<clipPath id="SVGID_2_">
				<use xlink:href="#SVGID_1_"  overflow="visible"/>
			</clipPath>
			<g clip-path="url(#SVGID_2_)">
				<g>
					
						<linearGradient id="SVGID_3_" gradientUnits="userSpaceOnUse" x1="297.3555" y1="-320.9365" x2="297.3555" y2="-175.666" gradientTransform="matrix(1 0 0 -1 -235.1348 -176.0635)">
						<stop  offset="0" style="stop-color:#B3B28E"/>
						<stop  offset="0.0261" style="stop-color:#B3B28E"/>
						<stop  offset="0.4851" style="stop-color:#B3B28E"/>
						<stop  offset="0.6573" style="stop-color:#C4C4A2"/>
						<stop  offset="0.9987" style="stop-color:#E8EBD0"/>
					</linearGradient>
					<path fill="url(#SVGID_3_)" d="M0,144.874V-0.397l124.439,0.403l0.002,144.868H0z"/>
					<g>
						
							<linearGradient id="SVGID_5_" gradientUnits="userSpaceOnUse" x1="232.0557" y1="-272.5679" x2="308.5088" y2="-272.5679" gradientTransform="matrix(1 0 0 -1 -235.1348 -176.0635)">
							<stop  offset="0" style="stop-color:#297473"/>
							<stop  offset="0.1547" style="stop-color:#256B6C"/>
							<stop  offset="0.6957" style="stop-color:#1A5559"/>
							<stop  offset="1" style="stop-color:#164D51"/>
						</linearGradient>
						<path id="SVGID_17_" fill="url(#SVGID_5_)" d="M70.839,111.627l2.535-3.914c0,0-3.727-9.305-9.068-19.232
							c-0.313-0.584-0.634-1.17-0.959-1.756c-0.342-0.891-0.841-1.639-1.59-2.387c-2.494-2.496-8.911-6.078-10.104-9.797
							c-7.054-21.975-21.191,3.436-32.021,1.43c-5.117-0.949-22.105,0.812-22.712,51.502
							C-3.079,127.473,58.298,118.327,70.839,111.627z"/>
					</g>
					<g>
						<path fill="#10474A" d="M43.833,60.374c-1.082-0.282-2.311,0.84-2.649,2.14c-0.231,0.888,0.058,1.654,0.777,1.992l-0.62,2.479
							c-0.149,0.39,0.162,0.566,0.424,0.631c-7.211,34.788-5.093,41.212-4.141,46.741c1.002,5.826,1.66,9.053,1.66,9.053
							l2.749-0.748c0,0-0.579-2.57-1.952-8.722c-0.233-1.042-1.244-6.442-1.153-11.531c0.155-8.733,1.208-22.516,3.52-34.604
							c0.294,0.05,0.437,0.037,0.533-0.283l0.508-2.652c0.891,0.02,1.385-0.441,1.617-1.335
							C45.443,62.23,44.915,60.655,43.833,60.374z"/>
					</g>
					<g>
						
							<linearGradient id="SVGID_6_" gradientUnits="userSpaceOnUse" x1="297.002" y1="-259.9292" x2="297.002" y2="-191.6523" gradientTransform="matrix(1 0 0 -1 -235.1348 -176.0635)">
							<stop  offset="0" style="stop-color:#AE6528"/>
							<stop  offset="0.7351" style="stop-color:#934F23"/>
							<stop  offset="0.7957" style="stop-color:#975324"/>
							<stop  offset="0.8689" style="stop-color:#A96027"/>
							<stop  offset="0.9483" style="stop-color:#C67529"/>
							<stop  offset="1" style="stop-color:#E28A28"/>
						</linearGradient>
						<path id="SVGID_9_" fill="url(#SVGID_6_)" d="M38.448,67.009c-5.33,4.687-10.096-9.063-3.089-24.632
							c1.456-3.234,1.58-4.726,2.771-7.138c4.965-10.05,8.94-4.64,10.189-9.744c1.543-6.31,10.887-4.148,10.887-4.148
							c0.215-2.339-0.196-3.356,1.182-4.478c2.643-2.147,6.258-0.945,6.258-0.945c13.549,2.772,8.539,15.046,12.681,17.541
							c1.249,0.752,6.094,1.322,7.805,5.582c2.626,6.536,4.186,10.262,4.713,21.139c0.972,20.051-14.688,0.014-16.88,17.573
							c-1.213,9.713-14.39,7.967-24.374-6.157C49.627,70.238,46.746,63.175,38.448,67.009z"/>
					</g>
					<g>
						
							<linearGradient id="SVGID_7_" gradientUnits="userSpaceOnUse" x1="330.6992" y1="-284.9775" x2="330.6992" y2="-239.3916" gradientTransform="matrix(1 0 0 -1 -235.1348 -176.0635)">
							<stop  offset="0" style="stop-color:#84466D"/>
							<stop  offset="1" style="stop-color:#99517C"/>
						</linearGradient>
						<path id="SVGID_4_" fill="url(#SVGID_7_)" d="M100.293,68.938c-3.613,0.1-2.867-3.941-4.03-4.505
							C84.762,58.865,64.752,75.804,65.59,82.575c1.737,13.059,11.171,21.559,18.626,26.34c13.411-3.17,44.441,3.713,41.097-8.461
							c-2.86-10.41-7.261-11.053-12.216-21.842C110.417,72.776,107.702,68.731,100.293,68.938z"/>
					</g>
					<g>
						<defs>
							<path id="SVGID_8_" d="M100.293,68.938c-3.613,0.1-2.867-3.941-4.03-4.505C84.762,58.865,63.82,69.269,65.59,82.575
								c1.737,13.059,11.171,21.559,18.626,26.34c13.411-3.17,44.441,3.713,41.097-8.461c-2.86-10.41-7.261-11.053-12.216-21.842
								C110.417,72.776,107.702,68.731,100.293,68.938z"/>
						</defs>
						<defs>
							<path id="SVGID_10_" d="M100.293,68.938c-3.613,0.1-2.867-3.941-4.03-4.505C84.762,58.865,63.82,69.269,65.59,82.575
								c1.737,13.059,11.171,21.559,18.626,26.34c13.411-3.17,44.441,3.713,41.097-8.461c-2.86-10.41-7.261-11.053-12.216-21.842
								C110.417,72.776,107.702,68.731,100.293,68.938z"/>
						</defs>
						<clipPath id="SVGID_11_">
							<use xlink:href="#SVGID_8_"  overflow="visible"/>
						</clipPath>
						<clipPath id="SVGID_12_" clip-path="url(#SVGID_11_)">
							<use xlink:href="#SVGID_10_"  overflow="visible"/>
						</clipPath>
						<path clip-path="url(#SVGID_12_)" fill="#7A3460" enable-background="new    " d="M73.374,68.01
							c0,0-20.629,11.615,6.897,30.24c-5.47,7.809-11.022,15.74-11.022,15.74l3.809,4.307l27.021-9.871
							C100.078,108.426,109.563,93.694,73.374,68.01z"/>
						<path clip-path="url(#SVGID_12_)" fill="#7A3460" enable-background="new    " d="M97.488,69.229l-1.346-4.621l-1.191,3.531
							l-3.481-3.384c-0.184,2.506-2.251,3.841-2.251,3.841c0.1,0.212,4.705,4.702,4.705,4.702l1.224-4.192l2.126,3.386
							L97.488,69.229z"/>
					</g>
					<g>
						<defs>
							<path id="SVGID_13_" d="M36.381,70.416c-5.33,4.687-8.028-12.469-1.021-28.038c1.456-3.234,1.58-4.726,2.771-7.138
								c4.965-10.05,8.94-4.64,10.189-9.744c1.543-6.31,10.887-4.148,10.887-4.148c0.215-2.339-0.196-3.356,1.182-4.478
								c2.643-2.147,6.258-0.945,6.258-0.945c13.549,2.772,8.539,15.046,12.681,17.541c1.249,0.752,6.094,1.322,7.805,5.582
								c2.626,6.536,4.186,10.262,4.713,21.139c0.972,20.051-14.688,0.014-16.88,17.573c-1.213,9.713-14.39,7.967-24.374-6.157
								C49.627,70.238,43.689,63.989,36.381,70.416z"/>
						</defs>
						<defs>
							<path id="SVGID_14_" d="M36.381,70.416c-5.33,4.687-8.028-12.469-1.021-28.038c1.456-3.234,1.58-4.726,2.771-7.138
								c4.965-10.05,8.94-4.64,10.189-9.744c1.543-6.31,10.887-4.148,10.887-4.148c0.215-2.339-0.196-3.356,1.182-4.478
								c2.643-2.147,6.258-0.945,6.258-0.945c13.549,2.772,8.539,15.046,12.681,17.541c1.249,0.752,6.094,1.322,7.805,5.582
								c2.626,6.536,4.186,10.262,4.713,21.139c0.972,20.051-14.688,0.014-16.88,17.573c-1.213,9.713-14.39,7.967-24.374-6.157
								C49.627,70.238,43.689,63.989,36.381,70.416z"/>
						</defs>
						<defs>
							<path id="SVGID_15_" d="M36.381,70.416c-5.33,4.687-8.028-12.469-1.021-28.038c1.456-3.234,1.58-4.726,2.771-7.138
								c4.965-10.05,8.94-4.64,10.189-9.744c1.543-6.31,10.887-4.148,10.887-4.148c0.215-2.339-0.196-3.356,1.182-4.478
								c2.643-2.147,6.258-0.945,6.258-0.945c13.549,2.772,8.539,15.046,12.681,17.541c1.249,0.752,6.094,1.322,7.805,5.582
								c2.626,6.536,4.186,10.262,4.713,21.139c0.972,20.051-14.688,0.014-16.88,17.573c-1.213,9.713-14.39,7.967-24.374-6.157
								C49.627,70.238,43.689,63.989,36.381,70.416z"/>
						</defs>
						<defs>
							<path id="SVGID_16_" d="M36.381,70.416c-5.33,4.687-8.028-12.469-1.021-28.038c1.456-3.234,1.58-4.726,2.771-7.138
								c4.965-10.05,8.94-4.64,10.189-9.744c1.543-6.31,10.887-4.148,10.887-4.148c0.215-2.339-0.196-3.356,1.182-4.478
								c2.643-2.147,6.258-0.945,6.258-0.945c13.549,2.772,8.539,15.046,12.681,17.541c1.249,0.752,6.094,1.322,7.805,5.582
								c2.626,6.536,4.186,10.262,4.713,21.139c0.972,20.051-14.688,0.014-16.88,17.573c-1.213,9.713-14.39,7.967-24.374-6.157
								C49.627,70.238,43.689,63.989,36.381,70.416z"/>
						</defs>
						<defs>
							<path id="SVGID_18_" d="M36.381,70.416c-5.33,4.687-8.028-12.469-1.021-28.038c1.456-3.234,1.58-4.726,2.771-7.138
								c4.965-10.05,8.94-4.64,10.189-9.744c1.543-6.31,10.887-4.148,10.887-4.148c0.215-2.339-0.196-3.356,1.182-4.478
								c2.643-2.147,6.258-0.945,6.258-0.945c13.549,2.772,8.539,15.046,12.681,17.541c1.249,0.752,6.094,1.322,7.805,5.582
								c2.626,6.536,4.186,10.262,4.713,21.139c0.972,20.051-14.688,0.014-16.88,17.573c-1.213,9.713-14.39,7.967-24.374-6.157
								C49.627,70.238,43.689,63.989,36.381,70.416z"/>
						</defs>
						<clipPath id="SVGID_19_">
							<use xlink:href="#SVGID_13_"  overflow="visible"/>
						</clipPath>
						<clipPath id="SVGID_20_" clip-path="url(#SVGID_19_)">
							<use xlink:href="#SVGID_14_"  overflow="visible"/>
						</clipPath>
						<clipPath id="SVGID_21_" clip-path="url(#SVGID_20_)">
							<use xlink:href="#SVGID_15_"  overflow="visible"/>
						</clipPath>
						<clipPath id="SVGID_23_" clip-path="url(#SVGID_21_)">
							<use xlink:href="#SVGID_16_"  overflow="visible"/>
						</clipPath>
						<clipPath id="SVGID_25_" clip-path="url(#SVGID_23_)">
							<use xlink:href="#SVGID_18_"  overflow="visible"/>
						</clipPath>
						
							<linearGradient id="SVGID_26_" gradientUnits="userSpaceOnUse" x1="299.4883" y1="-224.0498" x2="327.1875" y2="-224.0498" gradientTransform="matrix(1 0 0 -1 -235.1348 -176.0635)">
							<stop  offset="0" style="stop-color:#E28A28"/>
							<stop  offset="0.0701" style="stop-color:#D37E28"/>
							<stop  offset="0.2422" style="stop-color:#BB6C29"/>
							<stop  offset="0.4339" style="stop-color:#AB6027"/>
							<stop  offset="0.659" style="stop-color:#A25925"/>
							<stop  offset="0.9993" style="stop-color:#9F5725"/>
						</linearGradient>
						<path clip-path="url(#SVGID_25_)" fill="url(#SVGID_26_)" d="M65.481,23.953c0,0-4.589,18.175,4.742,27.495
							c16.052,16.033-5.54,18.925-5.54,18.925s28.132,6.518,27.354-6.384c-0.356-5.903,0.938-16.473-14.33-22.145
							C68.06,38.262,65.479,32.238,65.481,23.953z"/>
						
							<linearGradient id="SVGID_28_" gradientUnits="userSpaceOnUse" x1="300.3037" y1="-216.0552" x2="326.6475" y2="-216.0552" gradientTransform="matrix(1 0 0 -1 -235.1348 -176.0635)">
							<stop  offset="0" style="stop-color:#E28A28"/>
							<stop  offset="0.3684" style="stop-color:#CA7729"/>
							<stop  offset="0.9993" style="stop-color:#9F5725"/>
						</linearGradient>
						<path clip-path="url(#SVGID_25_)" fill="url(#SVGID_28_)" d="M65.481,23.953c0,0-2.17,10.569,4.926,17.514
							c5.032,4.927,7.757,1.117,13.24,8.387c6.61,8.761,7.865,5.633,7.865,5.633s-1.403-18.116-9.57-22.752
							C74.747,28.649,68.254,28.468,65.481,23.953z"/>
						
							<linearGradient id="SVGID_29_" gradientUnits="userSpaceOnUse" x1="280.7715" y1="-243.4307" x2="280.7715" y2="-197.167" gradientTransform="matrix(1 0 0 -1 -235.1348 -176.0635)">
							<stop  offset="0" style="stop-color:#E28A28"/>
							<stop  offset="0.137" style="stop-color:#D07C28"/>
							<stop  offset="0.4636" style="stop-color:#B46728"/>
							<stop  offset="0.7605" style="stop-color:#A45B26"/>
							<stop  offset="0.9993" style="stop-color:#9F5725"/>
						</linearGradient>
						<path clip-path="url(#SVGID_25_)" fill="url(#SVGID_29_)" d="M60.399,21.104c0.172,1.057-0.327,1.805-0.576,2.554
							c-4.242,5.738-11.132,6.806-6.247,19.426c3.548,9.171-8.658,9.512-11.646,11.049c-10.97,5.646-3.481,12.878-3.481,12.878
							c-10.723,4.103-9.963-28.337,1.332-36.684C46.433,25.408,50.041,24.885,60.399,21.104z"/>
						
							<linearGradient id="SVGID_30_" gradientUnits="userSpaceOnUse" x1="273.627" y1="-202.2866" x2="295.7686" y2="-202.2866" gradientTransform="matrix(1 0 0 -1 -235.1348 -176.0635)">
							<stop  offset="0" style="stop-color:#E28A28"/>
							<stop  offset="0.2374" style="stop-color:#CF7C29"/>
							<stop  offset="0.9993" style="stop-color:#9F5725"/>
						</linearGradient>
						<path clip-path="url(#SVGID_25_)" fill="url(#SVGID_30_)" d="M60.634,20.452c0,0-2.812,10.276-12.847,8.017
							c-5.865-1.32-9.295,5.604-9.295,5.604c0.789-4.677,12.641-15.7,15.314-15.7C54.422,21.367,60.634,20.452,60.634,20.452z"/>
						
							<linearGradient id="SVGID_31_" gradientUnits="userSpaceOnUse" x1="300.3447" y1="-206.5386" x2="322.1953" y2="-206.5386" gradientTransform="matrix(1 0 0 -1 -235.1348 -176.0635)">
							<stop  offset="6.776400e-04" style="stop-color:#9F5725"/>
							<stop  offset="0.3403" style="stop-color:#B96B29"/>
							<stop  offset="0.7492" style="stop-color:#D58029"/>
							<stop  offset="1" style="stop-color:#E28A28"/>
						</linearGradient>
						<path clip-path="url(#SVGID_25_)" fill="url(#SVGID_31_)" d="M65.223,23.545c0,0-0.132,0.817,0.446,2.104
							c1.018,2.259,2.883,5.859,8.062,7.412c4.961,1.485,9.104-1.35,13.329,4.344c0,0-1.667-7.499-8.466-10.257
							C78.596,27.147,70.99,30.31,65.223,23.545z"/>
					</g>
					<g>
						<defs>
							<path id="SVGID_32_" d="M70.839,111.627l2.535-3.914c0,0-3.727-9.305-9.068-19.232c-0.313-0.584-0.634-1.17-0.959-1.756
								c-0.342-0.891-0.841-1.639-1.59-2.387c-2.494-2.496-8.911-6.078-10.104-9.797c-7.054-21.975-21.191,3.436-32.021,1.43
								c-5.117-0.949-22.105,0.812-22.712,51.502C-3.079,127.473,58.298,118.327,70.839,111.627z"/>
						</defs>
						<clipPath id="SVGID_34_">
							<use xlink:href="#SVGID_32_"  overflow="visible"/>
						</clipPath>
						<path clip-path="url(#SVGID_34_)" fill="#10474A" d="M22.009,98.649c0,0-0.353,14.603,27.445,4.533
							c0,0,5.271,8.494,11.394,12.277l15.949-4.229L62.422,87.426L22.009,98.649z"/>
					</g>
					<g>
						<path fill="#10474A" d="M54.692,71.661c-0.279-0.03-0.548-0.08-0.812-0.146c-1.8,13.984-2.479,24.682-1.918,32.242
							c0.574,7.735,1.473,13.517,1.473,13.517l2.934-1.324c0,0-0.51-3.83-1.975-12.191C53.01,95.858,54.039,84.749,54.692,71.661z"
							/>
					</g>
					<path fill="#93742D" d="M49.149,91.534c0,0-0.372,10.024,15.604,23.215l24.273-8.35L74.651,82.596L49.149,91.534z"/>
					<path fill="#AD882E" d="M56.011,93.211c0,0,0.535,15.17,13.449,23.398l21.036-10.601L76.121,82.206L56.011,93.211z"/>
					
						<linearGradient id="SVGID_36_" gradientUnits="userSpaceOnUse" x1="299.2305" y1="-264.4653" x2="329.6924" y2="-264.4653" gradientTransform="matrix(1 0 0 -1 -235.1348 -176.0635)">
						<stop  offset="0" style="stop-color:#6D491C"/>
						<stop  offset="0.4707" style="stop-color:#8A5E25"/>
						<stop  offset="1" style="stop-color:#B87E2B"/>
					</linearGradient>
					<path opacity="0.3" fill="url(#SVGID_36_)" enable-background="new    " d="M72.875,71.731c0,0,11.785,8.078,18.351,16.671
						c0,0,6.279,11.428,1.599,15.282C82.42,112.252,48.152,78.592,72.875,71.731z"/>
					<g>
						<g>
							<path id="SVGID_22_" fill="#C29732" d="M72.872,69.841c0,0,11.784,8.075,18.352,16.67c0,0,6.278,11.431,1.598,15.283
								C82.417,110.362,48.148,76.7,72.872,69.841z"/>
						</g>
						<g>
							<defs>
								<path id="SVGID_38_" d="M72.872,69.841c0,0,11.784,8.075,18.352,16.67c0,0,6.278,11.431,1.598,15.283
									C82.417,110.362,48.148,76.7,72.872,69.841z"/>
							</defs>
							<clipPath id="SVGID_40_">
								<use xlink:href="#SVGID_38_"  overflow="visible"/>
							</clipPath>
							<path clip-path="url(#SVGID_40_)" fill="#93742D" d="M71.149,67.521c0,0-18.937,14.378-13.373,32.031
								c0,0,10.544,1.373,18.158-10.502l-3.882-5.334c3.189-0.973,7.816-4.652,10.113-7.07L71.149,67.521z"/>
						</g>
						<g>
							<g>
								<path id="SVGID_24_" fill="#C29732" d="M49.768,70.119c-8.672,6.243-28.11,18.284-25.355,28.588
									c1.457,5.451,8.239,6.102,17.519,2.725c4.596-1.674,13.452-6.861,15.754-10.258L49.768,70.119z"/>
								<path fill="#C29732" d="M24.412,98.708c1.061,3.971,4.956,5.383,10.574,4.559c0.029-4.871,0.786-12.281,3.444-25.023
									C30.409,84.383,22.598,91.921,24.412,98.708z"/>
								<path fill="#C29732" d="M49.768,70.119c-2.626,1.891-6.241,4.315-9.926,7.06c-1.329,8.464-2.121,16.733-2.419,22.675
									c-0.049,0.982-0.058,1.977-0.038,2.95c1.435-0.339,2.95-0.791,4.547-1.372c4.596-1.674,13.452-6.861,15.754-10.258
									L49.768,70.119z"/>
								<path opacity="0.3" fill="#6D491C" d="M37.422,99.854c0.299-5.941,1.091-14.211,2.419-22.675
									c-0.47,0.35-0.94,0.704-1.411,1.063c-2.658,12.742-3.416,20.152-3.444,25.023c0.769-0.113,1.567-0.266,2.397-0.462
									C37.364,101.831,37.373,100.836,37.422,99.854z"/>
							</g>
							<g>
								<defs>
									<path id="SVGID_41_" d="M49.768,70.119c-8.672,6.243-28.11,18.284-25.355,28.588c1.457,5.451,8.239,6.102,17.519,2.725
										c4.596-1.674,13.452-6.861,15.754-10.258L49.768,70.119z"/>
								</defs>
								<defs>
									<path id="SVGID_42_" d="M49.768,70.119c-8.672,6.243-28.11,18.284-25.355,28.588c1.457,5.451,8.239,6.102,17.519,2.725
										c4.596-1.674,13.452-6.861,15.754-10.258L49.768,70.119z"/>
								</defs>
								<clipPath id="SVGID_43_">
									<use xlink:href="#SVGID_41_"  overflow="visible"/>
								</clipPath>
								<clipPath id="SVGID_45_" clip-path="url(#SVGID_43_)">
									<use xlink:href="#SVGID_42_"  overflow="visible"/>
								</clipPath>
								<path clip-path="url(#SVGID_45_)" fill="#93742D" d="M51.58,67.944c0,0,8.024,17.771,5.106,31.638
									c0,0-11.11,0.23-15.717-18.707l4.668-3.057c-1.073-1.185-2.469-3.509-2.592-4.211L51.58,67.944z"/>
							</g>
							<polygon fill="#C7C8C9" points="91.513,64.138 96.413,63.989 95.221,67.521 							"/>
							
								<linearGradient id="SVGID_46_" gradientUnits="userSpaceOnUse" x1="274.0996" y1="-229.3984" x2="274.0996" y2="-209.5981" gradientTransform="matrix(1 0 0 -1 -235.1348 -176.0635)">
								<stop  offset="0" style="stop-color:#297077"/>
								<stop  offset="0.9967" style="stop-color:#348B8B"/>
							</linearGradient>
							<path fill="url(#SVGID_46_)" d="M42.213,34.854c2.199-1.715,3.233-0.355,3.233,1.379c2.479-1.344,3.677,2.029,2.936,3.426
								c2.252,0,1.875,1.693,0.276,2.72c1.966,1.708-0.132,2.231-0.845,2.211c1.28,2.812-0.8,3.322-3.129,2.495
								c0.199,2.2-1.815,2.977-3.771,2.308c0.36,2.555-1.979,2.104-2.979,1.45c-0.18,1.268-2.211,2.081-3.575,1.021
								c-3.493,5.298-6.019-5.27-6.354-7.104c-0.771-4.541,10.189-9.592,10.189-9.592C39.014,34.021,41.844,32.314,42.213,34.854z"
								/>
							<g>
								<g>
									<path id="SVGID_27_" fill="#67A9B4" d="M26.724,70.604c1.296-3.044,1.553-6.645-0.321-9.76
										c-0.255-0.417-0.548-0.848-0.876-1.295c-0.981-1.341-2.274-2.835-3.784-4.609c-5.854-6.885-4.664-12.948-4.664-12.948
										s5.983-7.381,21.054-6.753c-1.517,3.028-2.095,5.71-3.02,7.993c-7.145,17.643-1.552,24.549,3.336,23.777
										c-3.465,2.184-8.037,9.354-15.351,9.144c-0.596-0.019-1.202-0.011-1.817-0.078c-0.093,0.022,0.69-0.355,1.801-1.228
										c0.555-0.437,1.187-0.993,1.814-1.7C25.523,72.442,26.15,71.595,26.724,70.604z"/>
								</g>
								<g>
									<defs>
										<path id="SVGID_47_" d="M26.724,70.604c1.296-3.044,1.553-6.645-0.321-9.76c-0.255-0.417-0.548-0.848-0.876-1.295
											c-0.981-1.341-2.274-2.835-3.784-4.609c-5.854-6.885-4.664-12.948-4.664-12.948s5.983-7.381,21.054-6.753
											c-1.517,3.028-2.095,5.71-3.02,7.993c-7.145,17.643-1.552,24.549,3.336,23.777c-3.465,2.184-8.037,9.354-15.351,9.144
											c-0.596-0.019-1.202-0.011-1.817-0.078c-0.093,0.022,0.69-0.355,1.801-1.228c0.555-0.437,1.187-0.993,1.814-1.7
											C25.523,72.442,26.15,71.595,26.724,70.604z"/>
									</defs>
									<defs>
										<path id="SVGID_48_" d="M26.724,70.604c1.296-3.044,1.553-6.645-0.321-9.76c-0.255-0.417-0.548-0.848-0.876-1.295
											c-0.981-1.341-2.274-2.835-3.784-4.609c-5.854-6.885-4.664-12.948-4.664-12.948s5.983-7.381,21.054-6.753
											c-1.517,3.028-2.095,5.71-3.02,7.993c-7.145,17.643-1.552,24.549,3.336,23.777c-3.465,2.184-8.037,9.354-15.351,9.144
											c-0.596-0.019-1.202-0.011-1.817-0.078c-0.093,0.022,0.69-0.355,1.801-1.228c0.555-0.437,1.187-0.993,1.814-1.7
											C25.523,72.442,26.15,71.595,26.724,70.604z"/>
									</defs>
									<clipPath id="SVGID_49_">
										<use xlink:href="#SVGID_47_"  overflow="visible"/>
									</clipPath>
									<clipPath id="SVGID_50_" clip-path="url(#SVGID_49_)">
										<use xlink:href="#SVGID_48_"  overflow="visible"/>
									</clipPath>
									<path clip-path="url(#SVGID_50_)" fill="#297473" d="M30.423,40.204c-2.7,0-4.97,1.983-5.641,4.678v-0.003
										c0,0-0.723-1.574-2.854-1.18c-1.845,0.342-1.943,2.357-1.943,2.357c-0.829-1.608-2.416-2.696-4.237-2.696
										c-2.68,0-4.852,2.354-4.852,5.256c0,2.906,2.172,5.259,4.852,5.259c2.681,0,4.852-2.353,4.852-5.259
										c0-0.092-0.006-0.184-0.011-0.275c0.636,3.276,2.387,4.116,3.327,4.327c0.038,0.031,0.088,0.05,0.141,0.05
										c0.009,0,0.018-0.001,0.024-0.001c0.172-0.02,0.262-0.096,0.267-0.228c0.003-0.09-0.035-0.205-0.238-0.243
										c-1.01-0.188-3.476-1.233-3.307-6.832c0.007-0.202,0.226-0.963,1.127-1.093c1.895-0.272,2.688,1.512,2.688,1.512
										l0.001-0.011c-0.024,0.233-0.038,0.472-0.038,0.712c0,3.497,2.616,6.332,5.844,6.332c3.226,0,5.841-2.835,5.841-6.332
										C36.264,43.038,33.648,40.204,30.423,40.204z M15.746,53.195c-2.332,0-4.224-2.051-4.224-4.579
										c0-2.526,1.892-4.575,4.224-4.575c2.333,0,4.225,2.049,4.225,4.575C19.971,51.144,18.08,53.195,15.746,53.195z
										 M30.423,52.101c-2.838,0-5.138-2.492-5.138-5.567c0-3.074,2.3-5.566,5.138-5.566c2.836,0,5.136,2.492,5.136,5.566
										C35.559,49.609,33.259,52.101,30.423,52.101z"/>
									<g clip-path="url(#SVGID_50_)">
										
											<linearGradient id="SVGID_51_" gradientUnits="userSpaceOnUse" x1="250.5449" y1="-214.1558" x2="277.2422" y2="-214.1558" gradientTransform="matrix(1 0 0 -1 -235.1348 -176.0635)">
											<stop  offset="0.0033" style="stop-color:#348B8B"/>
											<stop  offset="0.994" style="stop-color:#226268"/>
										</linearGradient>
										<path fill="url(#SVGID_51_)" d="M15.41,40.812c0.778-1.613,18.616-10.033,26.375-7.782
											c1.467,0.425-2.479,9.131-3.687,9.599c-5.794,2.245-10.176,0-11.674-3.335C26.425,39.294,16.057,44.212,15.41,40.812"/>
									</g>
								</g>
								<polyline fill="#815522" points="57.503,87.665 51.886,67.009 70.407,66.663 								"/>
								<path fill="#FFDA99" d="M46.746,71.759l8.158,22.426l19.638-23.15c0,0-3.577-1.194-8.094-9.2
									c-6.09-14.053-0.418-27.81-0.418-27.81c-1.386-4.615-0.36-8.378-0.36-8.378s-0.244-0.642-0.446-2.104
									c0,0,0.366-0.805,0-1.756c-1.148-2.993-4.383-1.706-6.043,1.004c0,0-9.206,9.895-3.796,17.57
									C67.76,57.925,46.746,71.759,46.746,71.759z"/>
								<g>
									
										<linearGradient id="SVGID_52_" gradientUnits="userSpaceOnUse" x1="253.4326" y1="-226.0547" x2="264.375" y2="-226.0547" gradientTransform="matrix(0.9994 0.0358 0.0358 -0.9994 -236.1014 -172.0395)">
										<stop  offset="0" style="stop-color:#FFDA99"/>
										<stop  offset="0.4938" style="stop-color:#F7BE71"/>
									</linearGradient>
									<path fill="url(#SVGID_52_)" d="M13.947,64.394c0,0-1.058-0.62-2.236-1.354c-1.182-0.731-1.653-0.79-2.153-0.787
										C8.979,62.256,8.898,61.6,9.795,61.47c0.238-0.036-0.304-0.399,0.377-0.555c0.714-0.162,2.062,0.161,3.2,0.871
										c1.14,0.709,2.439,1.338,2.844,1.422c2.475,0.517,3.729,2.268,3.729,2.268L13.947,64.394z"/>
									
										<linearGradient id="SVGID_53_" gradientUnits="userSpaceOnUse" x1="259.3818" y1="-225.7798" x2="265.6172" y2="-225.7798" gradientTransform="matrix(0.9994 0.0358 0.0358 -0.9994 -236.1014 -172.0395)">
										<stop  offset="0" style="stop-color:#FFDA99"/>
										<stop  offset="0.4938" style="stop-color:#F7BE71"/>
									</linearGradient>
									<path fill="url(#SVGID_53_)" d="M21.152,66.237c0,0,0.312-1.842-1.727-3.036c-2.036-1.195-3.234-2.001-3.531-2.896
										c-0.261-0.781-0.83-0.656-0.752,0.124c0.077,0.78,0.11,1.484,0.856,1.96c0.746,0.477,2.163,0.716,2.297,1.523
										c0.133,0.808,0.206,1.693,0.206,1.693L21.152,66.237z"/>
									<path fill="#FFDA99" d="M20.08,67.999c0,0-0.949-2.184-3.875-2.361c0,0-1.446,0.085-2.74-0.603
										c-1.293-0.688-3.34-0.755-3.534-0.735c-0.476,0.05-0.818-0.672,0.324-0.723c1.144-0.05,2.918,0.436,2.918,0.436
										s0.728,0.173,1.164,0.015c0.146-0.054,0.809-0.342,1.63-0.423c0.822-0.083,4.449,0.418,5.005,1.988
										c0.295,0.836,0.49,2.256,0.67,2.693c0.182,0.437-1.32,0.908-1.32,0.908L20.08,67.999z"/>
									<polygon fill="#FFFFFF" points="23.838,71.306 22.473,67.451 18.72,69.077 19.829,73.52 									"/>
								</g>
								<g>
									<path fill="#381613" d="M57.418,36.197c0,0,0.357,3.923,2.097,3.094c1.676-0.799,2.447-3.018,2.239-3.149
										C61.014,35.672,57.418,36.197,57.418,36.197z"/>
									<g>
										<path fill="#D15D2A" d="M56.788,35.951c-0.811-0.566-1.252-2.521,0.253-2.685c2.562-0.028,3.824,3.026,5.315,2.572
											c0,0-1.626,4.334-3.353,4.246c-1.849-0.095-1.812-2.175-1.581-3.798c0,0,0.197-0.217,0.197,0.033
											c0.004,3.092,3.597,1.574,3.96,0.108c0,0-1.158,0.065-2.699-1.01c-0.612,0.049-1.112-0.605-1.68-0.094
											C56.89,35.579,56.788,35.951,56.788,35.951z"/>
										<path fill="#FFFFFF" d="M56.683,35.588l0.226,0.857l4.674-0.017C61.581,36.428,56.485,33.238,56.683,35.588z"/>
									</g>
								</g>
								<path fill="#804B1F" d="M60.737,25.562c0.017-0.313,0.147-0.94,0.147-0.94c0.072-0.018,3.11-1.433,3.11,2.328
									C63.996,26.989,62.72,25.245,60.737,25.562z"/>
								<path fill="#804B1F" d="M59.202,25.524c0.08-0.478,0.239-0.973,0.239-0.973c-0.064-0.021-1.8-1.007-2.863,1.737
									C56.563,26.323,57.956,25.325,59.202,25.524z"/>
								<g>
									<path fill="#D08F37" d="M59.942,33.464c-0.052,0-0.104-0.019-0.146-0.055c-2.344-2.03-0.486-8.803-0.407-9.09
										c0.033-0.119,0.153-0.188,0.274-0.154c0.119,0.032,0.188,0.155,0.154,0.273c-0.019,0.067-1.861,6.788,0.27,8.634
										c0.094,0.08,0.104,0.222,0.022,0.314C60.067,33.438,60.005,33.464,59.942,33.464z"/>
								</g>
								<path fill="#023539" d="M35.446,44.749c0,0-0.992,1.527-4.985,1.064c-1.817-0.211-3.693-0.008-5.67,1.226l-0.094-0.943
									c0,0,0.604-2.81,7.329-1.083C34.202,45.568,35.446,44.749,35.446,44.749z"/>
								<path fill="#023539" d="M15.438,47.523c1.453-0.227,2.778-0.637,4.338,0.071v-1.216c0,0-0.816-1.554-4.788,0.463
									c-0.466,0.235-1.676,0.444-1.838,0.384C13.15,47.225,13.743,47.788,15.438,47.523z"/>
								<path fill="#023539" d="M19.518,46.736c-0.509,0.194-1.429-0.017-1.954,0.035c0.095,0.83,0.733,2.232,1.695,2.232
									c0.608,0,0.873-0.556,0.873-1.427c0-0.344-0.077-0.66-0.208-0.919C19.789,46.691,19.654,46.716,19.518,46.736z"/>
								<path fill="#023539" d="M29.237,45.4c-0.212,0.027-0.423,0.053-0.634,0.074c-0.157,0.311-0.251,0.674-0.251,1.063
									c0,1.133,0.77,2.05,1.719,2.05s1.72-0.917,1.72-2.05c0-0.809-0.322-1.25-0.439-1.525
									C31.122,44.995,29.798,45.453,29.237,45.4z"/>
								<path fill="#FFFFFF" d="M29.982,39.822c-2.698,0-4.969,1.983-5.64,4.68v-0.005c0,0-0.722-1.574-2.854-1.18
									c-1.846,0.342-1.945,2.358-1.945,2.358c-0.829-1.609-2.415-2.697-4.236-2.697c-2.679,0-4.852,2.354-4.852,5.258
									c0,2.903,2.173,5.258,4.852,5.258c2.68,0,4.853-2.354,4.853-5.258c0-0.607-0.098-1.192-0.272-1.735l0.005,0.012
									c0,0,0.108-2.211,1.599-2.572c1.856-0.452,2.687,1.511,2.687,1.511l0.003-0.011c-0.023,0.233-0.039,0.472-0.039,0.713
									c0,3.497,2.616,6.332,5.843,6.332c3.228,0,5.844-2.835,5.844-6.332C35.826,42.657,33.209,39.822,29.982,39.822z
									 M15.308,52.813c-2.332,0-4.223-2.05-4.223-4.577c0-2.528,1.891-4.577,4.223-4.577s4.225,2.049,4.225,4.577
									C19.532,50.763,17.64,52.813,15.308,52.813z M29.982,51.72c-2.837,0-5.137-2.493-5.137-5.567c0-3.073,2.3-5.567,5.137-5.567
									c2.838,0,5.138,2.494,5.138,5.567C35.12,49.227,32.82,51.72,29.982,51.72z"/>
								<ellipse opacity="0.3" fill="#FFFFFF" enable-background="new    " cx="15.41" cy="48.239" rx="4.224" ry="4.577"/>
								<ellipse opacity="0.3" fill="#FFFFFF" enable-background="new    " cx="30.071" cy="46.379" rx="5.137" ry="5.567"/>
								<g>
									<path fill="#226268" d="M24.639,54.439c-0.771,1.367,0.558,2.686,1.991,2.311c2.403-0.625,2.634-3.609,2.634-3.609
										S28.948,54.888,24.639,54.439z"/>
									<path fill="#297473" d="M23.407,54.979c-0.71-0.801-0.031-1.43,3.13-1.136c1.884,0.175,2.728-0.702,2.728-0.702
										s-0.008,0.886-1.622,1.628c-1.291,0.593-2.424,0.621-3.158,0.64C23.817,55.425,23.407,54.979,23.407,54.979z"/>
								</g>
								<path fill="#93742D" d="M49.455,96.497c0,0,9.776,6.84,22.465-2.408c0,0-1.492-5.711-3.761-6.424
									C63.131,86.084,54.297,89.594,49.455,96.497z"/>
								<g>
									<g>
										<path id="SVGID_33_" fill="#C19832" d="M51.886,67.009c0,0,8.024,17.771,5.107,31.64c0,0-11.111,0.229-15.718-18.709
											l4.668-3.058c-1.073-1.185-2.47-3.506-2.592-4.211L51.886,67.009z"/>
									</g>
									<g>
										<defs>
											<path id="SVGID_54_" d="M51.886,67.009c0,0,8.024,17.771,5.107,31.64c0,0-11.111,0.229-15.718-18.709l4.668-3.058
												c-1.073-1.185-2.47-3.506-2.592-4.211L51.886,67.009z"/>
										</defs>
										<clipPath id="SVGID_55_">
											<use xlink:href="#SVGID_54_"  overflow="visible"/>
										</clipPath>
										<g opacity="0.4" clip-path="url(#SVGID_55_)">
											
												<rect x="49.582" y="69.654" transform="matrix(-0.5212 -0.8535 0.8535 -0.5212 12.1234 155.6359)" fill="#93742D" width="0.279" height="9.525"/>
										</g>
									</g>
									<g>
										<g>
											<path id="SVGID_35_" fill="#D8AA38" d="M70.407,66.663c0,0-16.615,12.47-13.372,32.033c0,0,11.256,0.847,18.871-11.03
												l-3.898-5.062c3.189-0.972,7.12-4.396,9.417-6.816L70.407,66.663z"/>
										</g>
										<g>
											<defs>
												<path id="SVGID_56_" d="M70.407,66.663c0,0-16.615,12.47-13.372,32.033c0,0,11.256,0.847,18.871-11.03l-3.898-5.062
													c3.189-0.972,7.12-4.396,9.417-6.816L70.407,66.663z"/>
											</defs>
											<clipPath id="SVGID_57_">
												<use xlink:href="#SVGID_56_"  overflow="visible"/>
											</clipPath>
											<g opacity="0.4" clip-path="url(#SVGID_57_)">
												
													<rect x="61.867" y="77.501" transform="matrix(-0.6203 -0.7844 0.7844 -0.6203 49.7488 179.3667)" fill="#93742D" width="12.851" height="0.279"/>
											</g>
										</g>
										<g>
											<g>
												<path id="SVGID_37_" fill="#D8AB36" d="M41.93,101.432c0.004-0.002-17.509-31.313-17.509-31.313l-5.53,1.569
													l1.358,23.55C20.249,95.239,19.776,110.141,41.93,101.432z"/>
											</g>
											<g>
												<defs>
													<path id="SVGID_58_" d="M41.93,101.432c0.004-0.002-17.509-31.313-17.509-31.313l-5.53,1.569l1.358,23.55
														C20.249,95.239,19.776,110.141,41.93,101.432z"/>
												</defs>
												<clipPath id="SVGID_59_">
													<use xlink:href="#SVGID_58_"  overflow="visible"/>
												</clipPath>
												<g opacity="0.3" clip-path="url(#SVGID_59_)">
													<path fill="#6D491C" d="M43.689,58.001c-1.072-0.316-2.337,0.765-2.717,2.053c-0.26,0.88,0.004,1.655,0.712,2.016
														l-0.7,2.458c-0.162,0.385,0.144,0.571,0.403,0.644c-8.337,34.535-6.429,41.025-5.656,46.582
														c0.812,5.855,1.365,9.102,1.365,9.102l2.771-0.658c0,0-0.495-2.588-1.668-8.78c-0.199-1.05-1.034-6.479-0.778-11.563
														c0.438-8.724,1.938-22.464,4.642-34.471c0.292,0.06,0.436,0.051,0.542-0.265l0.594-2.634
														c0.89,0.049,1.398-0.396,1.659-1.282C45.239,59.91,44.762,58.318,43.689,58.001z"/>
												</g>
											</g>
											<g opacity="0.3">
												<path fill="#6D491C" d="M68.68,114.327h-0.002C68.678,114.34,68.68,114.327,68.68,114.327z"/>
											</g>
											<g opacity="0.3">
												<path fill="#6D491C" d="M66.307,73.212c0.261-0.104,0.346-0.349,0.294-0.683l-0.498-2.336
													c0.763-0.271,1.152-1.13,0.977-2.035c-0.261-1.32-1.415-2.512-2.515-2.297c-1.099,0.215-1.72,1.756-1.463,3.073
													c0.178,0.902,0.72,1.388,1.582,1.439l0.304,2.436c0.052,0.327,0.148,0.557,0.536,0.545
													c3.334,17.16,1.895,28.865,1.211,35.404c-0.405,3.887-0.731,6.203-0.731,6.203l2.676-0.635
													c0.002-0.08,0.081-1.064,1.042-10.529C70.452,96.598,67.945,80.829,66.307,73.212z"/>
											</g>
											<g opacity="0.3">
												<path fill="#6D491C" d="M53.705,64.855c-1.109-0.146-2.189,1.117-2.363,2.449c-0.12,0.91,0.368,1.573,1.031,1.837
													l-0.483,2.461c-0.055,0.315,0.104,0.442,0.408,0.602c-1.286,11.555-1.862,20.285-1.612,25.369
													c0,0,0.734,1.91,2.792,5.101c-1.975-8.097-0.929-21.062-0.416-30.304c0.334,0.02,0.459-0.172,0.516-0.49l0.29-2.475
													c0.69-0.027,1.372-0.656,1.49-1.571C55.533,66.5,54.813,65,53.705,64.855z"/>
											</g>
											<g>
												<g>
													<defs>
														<path id="SVGID_39_" d="M67.419,112.858c0,0,0.456-3.426,1.143-10.186c0.433-4.248-1.331-20.119-3.553-30.458
															c0.26-0.104,0.345-0.35,0.293-0.682l-0.497-2.337c0.761-0.271,1.152-1.13,0.976-2.035
															c-0.26-1.32-1.415-2.511-2.515-2.297c-1.098,0.215-1.721,1.757-1.463,3.074c0.177,0.9,0.719,1.388,1.583,1.438
															l0.303,2.435c0.052,0.328,0.148,0.558,0.536,0.546c2.969,26.352,1.895,28.865,1.211,35.404
															c-0.29,2.771-0.536,4.725-0.654,5.629c-4.633,0.93-9.273,1.863-13.875,2.787c-0.493-3.58-1.565-11.305-1.926-13.418
															c-1.366-8.031,1.962-21.072,2.613-34.424c0.334,0.02,0.459-0.172,0.515-0.491l0.29-2.475
															c0.69-0.026,1.371-0.656,1.491-1.571c0.176-1.333-0.544-2.831-1.651-2.976c-1.109-0.146-2.189,1.117-2.363,2.448
															c-0.12,0.911,0.368,1.574,1.031,1.837l-0.484,2.46c-0.054,0.315,0.105,0.442,0.409,0.604
															c-2.234,14.658-5.346,27.338-4.775,35.012c0.475,6.379,1.66,11.752,1.888,13.592
															c-4.731,0.951-9.407,1.894-13.974,2.814c0,0-1.713-10.475-1.713-14.516c0-8.959,3.545-28.556,7.512-40.208
															c0.286,0.092,0.429,0.098,0.568-0.204l0.87-2.556c0.879,0.144,1.433-0.245,1.787-1.098
															c0.515-1.241,0.212-2.875-0.821-3.304c-1.033-0.429-2.405,0.511-2.92,1.751c-0.354,0.848-0.173,1.646,0.492,2.08
															l-0.957,2.369c-0.203,0.365,0.08,0.584,0.331,0.681c-9.048,26.982-10.767,38.086-9.854,45.154
															c0.744,5.773,1.276,9.017,1.538,10.486c-2.623,0.529-5.204,1.051-7.731,1.562l39.149,22.649l62.339-35.973v-7.029
															C109.228,104.5,88.477,108.631,67.419,112.858z"/>
													</defs>
													
														<linearGradient id="SVGID_60_" gradientUnits="userSpaceOnUse" x1="23.0718" y1="101.0171" x2="124.5596" y2="101.0171">
														<stop  offset="0" style="stop-color:#453530"/>
														<stop  offset="0.6467" style="stop-color:#604A40"/>
														<stop  offset="0.8546" style="stop-color:#6F5548"/>
														<stop  offset="1" style="stop-color:#755A4B"/>
													</linearGradient>
													<use xlink:href="#SVGID_39_"  overflow="visible" fill="url(#SVGID_60_)"/>
													<clipPath id="SVGID_61_">
														<use xlink:href="#SVGID_39_"  overflow="visible"/>
													</clipPath>
													<g clip-path="url(#SVGID_61_)">
														<path fill="#4A3831" enable-background="new    " d="M91.267,85.86c-0.002-0.002-21.559,30.779-21.559,30.779
															l0.3,0.338l-2.711,2.533l0.361,0.336c-0.312,0.098-0.688,0.188-1.128,0.246c-1.412,0.188-1.263,0.891-2.955,1.549
															c-1.692,0.66-2.7,0.506-3.645,0.26c-1.205-0.315-1.513-0.115-0.461,0.756c0.823,0.683,1.953,0.822,2.899,0.679
															c0.946-0.146,1.923-0.173,1.378,0.659c-0.152,0.232-0.508,0.699-0.915,1.312c-1.736,2.265-2.497,4.404-2.01,5.125
															c0.103,0.15,0.146,0.177,0.182,0.109c0.036,0.299,0.108,0.59,0.228,0.87c0,0,0.621,1.222,0.735,0.043
															c0.096-0.971,0.343-2.938,1.397-4.538c-0.78,2.178-0.778,4.084-0.236,4.602c0.47,0.449,0.704-0.262,0.732-2.1
															c0.021-1.354,1.12-3.646,1.694-4.757c1.092-0.959,2.209-1.868,3.72-3.301l1.01,0.941l2.638-2.027l0.595,0.672
															l22.896-12.03C96.413,108.915,107.992,104.163,91.267,85.86z"/>
													</g>
												</g>
												
													<linearGradient id="SVGID_62_" gradientUnits="userSpaceOnUse" x1="296.7344" y1="-303.1631" x2="299.8867" y2="-303.1631" gradientTransform="matrix(1 0 0 -1 -235.1348 -176.0635)">
													<stop  offset="0" style="stop-color:#FFDA99"/>
													<stop  offset="0.4938" style="stop-color:#F7BE71"/>
												</linearGradient>
												<path fill="url(#SVGID_62_)" d="M64.752,123.293c0,0-2.008,3.557-2.036,5.393c-0.029,1.838-0.264,2.549-0.734,2.1
													c-0.657-0.629-0.521-3.305,0.85-6.028C63.681,123.063,64.752,123.293,64.752,123.293z"/>
												<path fill="#F7BE71" d="M63.5,122.483c0,0-0.808,3.086-2.664,5.32c-1.174,1.412-0.794,2.436-1.159,1.896
													c-0.511-0.754,0.344-3.066,2.259-5.443C63.123,122.782,63.5,122.483,63.5,122.483z"/>
												<path fill="#FFDA99" d="M67.65,118.588c0,0-0.745,0.572-2.268,0.773c-1.411,0.188-1.262,0.891-2.954,1.549
													c-1.693,0.66-2.7,0.506-3.644,0.26c-1.205-0.316-1.514-0.115-0.462,0.756c0.823,0.682,1.952,0.822,2.898,0.678
													c0.947-0.145,1.923-0.172,1.378,0.66s-3.68,4.66-2.515,7.416c0,0,0.621,1.221,0.736,0.043
													c0.113-1.176,0.448-3.812,2.176-5.492c1.725-1.68,3.151-2.686,5.562-5.016L67.65,118.588z"/>
												<polygon fill="#FFFFFF" points="69.139,115.987 66.15,118.78 69.139,121.571 72.77,118.78 												"/>
												<path fill="#D8AB36" d="M90.12,85.131c-0.002-0.004-21.559,30.777-21.559,30.777l3.811,4.307l21.55-12.859
													C93.921,107.356,104.995,102.04,90.12,85.131z"/>
												<path fill="#84466D" d="M90.496,60.185c15.817-0.853,19.594-10.505,19.594-10.505c-1.87-0.329-4.766-1.889-7.21-4.779
													c-5.075-6.004-9.525-6.306-9.525-6.306L90.496,60.185z"/>
												<g>
													<g>
														
															<linearGradient id="SVGID_63_" gradientUnits="userSpaceOnUse" x1="325.793" y1="-243.6504" x2="325.793" y2="-214.5547" gradientTransform="matrix(1 0 0 -1 -235.1348 -176.0635)">
															<stop  offset="0" style="stop-color:#D8A5C4"/>
															<stop  offset="0.2708" style="stop-color:#DCAAC6"/>
															<stop  offset="0.604" style="stop-color:#E9B7CC"/>
															<stop  offset="0.6493" style="stop-color:#ECBBCF"/>
														</linearGradient>
														<path id="SVGID_44_" fill="url(#SVGID_63_)" d="M86.93,39.181c-13.556,6.563-8.415,17.871-1.388,18.8
															c1.575,0.209,6.054-0.435,6.079-0.125c0.395,2.145,0.233,6.558,0.233,6.558c0.124,0.132,0.619,1.27,0.783,1.43
															c0.822,0.797,1.821,2.042,2.582,1.677c0.459-0.22,1.001-1.878,1.001-1.878s-0.169-2.022-0.487-4.876
															c-0.272-2.44,0.231-2.729,1.124-3.205C109.276,50.942,100.685,34.998,86.93,39.181z"/>
													</g>
													<g>
														<defs>
															<path id="SVGID_64_" d="M86.93,39.181c-13.556,6.563-8.415,17.871-1.388,18.8c1.575,0.209,6.054-0.435,6.079-0.125
																c0.395,2.145,0.233,6.558,0.233,6.558c0.124,0.132,0.619,1.27,0.783,1.43c0.822,0.797,1.821,2.042,2.582,1.677
																c0.459-0.22,1.001-1.878,1.001-1.878s-0.169-2.022-0.487-4.876c-0.272-2.44,0.231-2.729,1.124-3.205
																C109.276,50.942,100.685,34.998,86.93,39.181z"/>
														</defs>
														<clipPath id="SVGID_65_">
															<use xlink:href="#SVGID_64_"  overflow="visible"/>
														</clipPath>
														<path opacity="0.4" clip-path="url(#SVGID_65_)" fill="#711F56" enable-background="new    " d="M102.962,35.119
															c-3.911-0.425-5.975,7.676-5.975,7.676c-1.663-0.98-2.295,1.023-2.295,1.023c-0.938-0.421-7.132-3.042-11.451-1.146
															c-4.494,1.972,2.32,11.219,9.015,9.684c2.702-0.618,2.259-5.041,2.812-7.43c0.333-1.438,1.062-1.577,1.589-1.459
															c0.335,0.331,1.359,1.461,1.268,2.786c-0.027,0.398-0.157,0.789-0.386,1.159c-0.065,0.105-0.032,0.246,0.073,0.312
															c0.037,0.022,0.077,0.034,0.117,0.034c0.076,0,0.151-0.039,0.193-0.107c0.268-0.434,0.42-0.894,0.453-1.367
															c0.028-0.411-0.035-0.799-0.147-1.157c2.662,3.159,6.557,3.016,6.844-5.334
															C105.214,35.658,102.962,35.119,102.962,35.119z M94.066,47.845c-0.508,4.511-4.417,3.777-8.021,1.1
															c-3.698-2.747-4.25-7.686,5.423-5.451C91.468,43.494,94.48,44.153,94.066,47.845z M103.746,42.673
															c-0.784,5.246-6.013,2.994-5.835-0.247c0.063-1.177,0.916-2.691,1.426-3.642
															C100.923,35.825,104.849,35.3,103.746,42.673z"/>
													</g>
													<g>
														<path fill="#84466D" d="M97.633,49.834c-1.891,0-2.718-1.754-2.728-1.776c-0.028-0.062,2.041,1.116,4.082,0.802
															C98.988,48.859,98.779,49.695,97.633,49.834z"/>
													</g>
													<path fill="#713560" d="M95.784,39.227c0,0-2.409,3.376-4.787,4.468c0,0,1.522-2.018,1.742-2.971
														c0,0-1.377,2.144-2.855,2.971c0,0,0.243-2.022,0.351-3.265c0,0-1.485,2.233-3.381,2.802c0,0,1.395-2.688,1.159-4.403
														C88.012,38.829,91.777,37.557,95.784,39.227z"/>
													<path fill="#713560" d="M80.566,42.442c-7.802,5.644-10.2,19.989,11.277,17.743
														c-0.952-14.371-3.59-18.536-4.463-21.139C85.354,39.665,82.765,40.851,80.566,42.442z"/>
													<path fill="#82456C" d="M77.78,53.921c-3.438-10.933,10.231-15.092,10.231-15.092s3.082,8.042,3.832,21.356
														C91.844,60.185,80.099,61.299,77.78,53.921z"/>
													<path fill="#713560" d="M88.012,38.829c0,0-6.062,4.664-6.371,10.254c-0.468,8.466,10.154,10.29,10.154,10.29
														S91.012,45.292,88.012,38.829z"/>
													<path fill="#291022" d="M90.284,46.735c0,0-0.65-2.941,1.568-2.731c0.829,0.079,1.654,0.995,1.654,1.533
														c0,0-0.666-0.896-1.906-0.469C90.598,45.417,90.284,46.735,90.284,46.735z"/>
													<path fill="#291022" d="M98.175,44.345c0,0-0.587-2.255,1.04-2.494c0.702-0.104,1.582,1.004,1.582,1.509
														c0,0-0.63-0.979-1.685-0.572C98.409,43.06,98.175,44.345,98.175,44.345z"/>
													<path opacity="0.3" fill="#FFFFFF" enable-background="new    " d="M99.502,37.875c-0.51,0.95-1.362,2.465-1.426,3.642
														c-0.177,3.241,5.051,5.493,5.835,0.248C105.013,34.389,101.089,34.917,99.502,37.875z"/>
													<path opacity="0.3" fill="#FFFFFF" enable-background="new    " d="M91.545,42.614
														c-9.672-2.232-9.121,2.704-5.422,5.451c3.604,2.68,7.513,3.412,8.021-1.099C94.56,43.275,91.545,42.614,91.545,42.614z
														"/>
													
														<linearGradient id="SVGID_66_" gradientUnits="userSpaceOnUse" x1="316.6055" y1="-219.147" x2="340.2285" y2="-219.147" gradientTransform="matrix(1 0 0 -1 -235.1348 -176.0635)">
														<stop  offset="0" style="stop-color:#D0B3C5"/>
														<stop  offset="1" style="stop-color:#FFFFFF"/>
													</linearGradient>
													<path fill="url(#SVGID_66_)" d="M105.088,39.677c0.142-4.135-2.335-5.278-2.335-5.278
														c-3.911-0.426-5.976,7.676-5.976,7.676c-1.662-0.98-2.294,1.024-2.294,1.024c-0.938-0.421-7.131-3.043-11.451-1.146
														c-4.494,1.973,1.388,11.084,9.015,9.685c2.727-0.503,2.259-5.043,2.812-7.431c0.335-1.446,1.069-1.579,1.597-1.458
														c0.342,0.079,0.815,0.632,0.933,0.807C100.013,47.535,104.778,48.716,105.088,39.677z M93.857,47.126
														c-0.509,4.513-4.417,3.777-8.021,1.101c-3.699-2.748-4.25-7.686,5.422-5.452
														C91.258,42.774,94.272,43.433,93.857,47.126z M103.538,41.954c-0.784,5.246-6.013,2.993-5.835-0.248
														c0.063-1.177,0.916-2.691,1.426-3.642C100.714,35.105,104.639,34.582,103.538,41.954z"/>
													
														<linearGradient id="SVGID_67_" gradientUnits="userSpaceOnUse" x1="288.542" y1="-196.231" x2="301.5869" y2="-196.231" gradientTransform="matrix(1 0 0 -1 -235.1348 -176.0635)">
														<stop  offset="0" style="stop-color:#E28A28"/>
														<stop  offset="0.0611" style="stop-color:#D98328"/>
														<stop  offset="0.4377" style="stop-color:#B96A29"/>
														<stop  offset="0.7634" style="stop-color:#A65C26"/>
														<stop  offset="0.9993" style="stop-color:#9F5725"/>
													</linearGradient>
													<path fill="url(#SVGID_67_)" d="M65.223,23.545c-0.285-2.696-2.353-2.793-5.787-0.896
														c-3.07,1.697-6.028,0.081-6.028-1.372c0-2.247,4.09-4.993,6.981-4.408c0,0-1.188,1.828,1.978,2.272
														C68.982,20.071,65.687,23.219,65.223,23.545z"/>
													
														<linearGradient id="SVGID_68_" gradientUnits="userSpaceOnUse" x1="300.3574" y1="-196.4185" x2="310.3604" y2="-196.4185" gradientTransform="matrix(1 0 0 -1 -235.1348 -176.0635)">
														<stop  offset="6.776400e-04" style="stop-color:#9F5725"/>
														<stop  offset="0.2377" style="stop-color:#A65C26"/>
														<stop  offset="0.5798" style="stop-color:#BA6C29"/>
														<stop  offset="0.9841" style="stop-color:#E08828"/>
														<stop  offset="1" style="stop-color:#E28A28"/>
													</linearGradient>
													<path fill="url(#SVGID_68_)" d="M65.223,23.545c0,0,2.494,1.865,5.817,1.132c2.104-0.465,3.979-1.422,4.186-3.201
														c0,0-1.206-4.687-8.72-5.614c0,0,1.985,0.752,2.158,2.957C68.97,22.714,65.223,23.545,65.223,23.545z"/>
													<path fill="#FFFFFF" d="M97.884,67.731l-1.471-3.742l-1.192,3.531l-3.708-3.382l-1.021,3.945
														c0.1,0.212,3.702,4.598,3.702,4.598l1.224-4.192l2.127,3.385L97.884,67.731z"/>
													
														<linearGradient id="SVGID_69_" gradientUnits="userSpaceOnUse" x1="295.6406" y1="-204.4282" x2="298.166" y2="-204.4282" gradientTransform="matrix(1 0 0 -1 -235.1348 -176.0635)">
														<stop  offset="0" style="stop-color:#41312D"/>
														<stop  offset="0.2045" style="stop-color:#44322B"/>
														<stop  offset="0.5722" style="stop-color:#4D3323"/>
														<stop  offset="1" style="stop-color:#583517"/>
													</linearGradient>
													<path fill="url(#SVGID_69_)" d="M63.031,28.651c0,0-0.306-1.443-1.542-1.443c-0.771,0-0.967,0.785-0.982,1.258
														c0,0.007-0.001,0.013-0.001,0.021c0,0.002,0,0.006,0.001,0.008c-0.001,0.04-0.001,0.077,0,0.111
														c0,0,0.001-0.018,0.005-0.046c0.032,0.535,0.41,0.961,0.875,0.961c0.486,0,0.881-0.464,0.881-1.034
														c0-0.059-0.007-0.114-0.015-0.168C62.664,28.475,63.031,28.651,63.031,28.651z"/>
													
														<linearGradient id="SVGID_70_" gradientUnits="userSpaceOnUse" x1="290.9883" y1="-204.3086" x2="293.5283" y2="-204.3086" gradientTransform="matrix(1 0 0 -1 -235.1348 -176.0635)">
														<stop  offset="0" style="stop-color:#41312D"/>
														<stop  offset="0.2045" style="stop-color:#44322B"/>
														<stop  offset="0.5722" style="stop-color:#4D3323"/>
														<stop  offset="1" style="stop-color:#583517"/>
													</linearGradient>
													<path fill="url(#SVGID_70_)" d="M57.622,26.975c-1.299-0.229-1.769,1.476-1.769,1.476s0.477-0.385,0.97-0.591
														c-0.12,0.177-0.194,0.397-0.194,0.642c0,0.571,0.395,1.034,0.88,1.034c0.487,0,0.882-0.463,0.882-1.034
														C58.405,28.104,58.395,27.11,57.622,26.975z"/>
												</g>
											</g>
										</g>
									</g>
								</g>
							</g>
						</g>
					</g>
				</g>
			</g>
		</g>
	</g>
</g>
</svg>
